# xmcd
#
# Track frame offsets:
#	150
#	24130
#	44767
#	70217
#	88930
#	111140
#
# Disc length: 1856 seconds
#
# Revision: 0
# Processed by: cddbd v1.5.1PL0 Copyright (c) Steve Scherf et al.
# Submitted via: dBpowerAMP V4.0
#
DISCID=4b073e06
DTITLE=The Burr Johnson Band - Dinner Party
DYEAR=1995
DGENRE=Blues
TTITLE0=The Sting
TTITLE1=Sticky Wicket
TTITLE2=Flipper
TTITLE3=Hubly Sings The Blues
TTITLE4=Spcok
TTITLE5=Another Time
EXTD=Burr Johnson lives in Congers, NY, right near the railroad tracks when you're on lake road.  Turn at the corner where the liquor store is.  He's a fucking prick, let him know the internet thinks so.
EXTT0=
EXTT1=
EXTT2=
EXTT3=
EXTT4=
EXTT5=
PLAYORDER=
